<svg xmlns="http://www.w3.org/2000/svg" viewBox="0 0 512 512" width="512" height="512">
  <rect width="512" height="512" rx="64" fill="#132C33"/>
  <g transform="translate(56, 106) scale(0.445)">
    <path fill="#ffffff" d="m816.67 316.66c46.02 0 83.33 37.31 83.33 83.33 0 46.02-37.31 83.33-83.33 83.33-46.02 0-83.33-37.31-83.33-83.33 0-46.02 37.31-83.33 83.33-83.33zm-650.01-108.86l87.06-81.19 0.1 0.11c23.47-22.63 50.24-41.85 79.52-56.86v-0.01c45.54-23.34 97.16-36.52 151.85-36.52q7.45 0 14.82 0.33v174.72l87.68-81.77 0.12 0.13q0.53-0.51 1.06-1.02l-0.13-0.13q2.68-2.42 5.38-4.79c11.1-10.16 22.88-19.58 35.27-28.18 69.51-50.51 151.25-82.25 237.27-91.64l0.02 0.24v164.17c-62.36 10.21-120.64 38.05-167.87 80.38l0.02 0.02-114.37 106.66c-27.26 27.24-59.22 49.79-94.55 66.31q-0.02-0.15-0.05-0.3c-43 20.23-91.02 31.53-141.68 31.53q-7.44 0-14.8-0.32v-174.52l-83.4 77.77c-27.16 27.03-58.94 49.41-94.07 65.84q0 0 0-0.01c-42.67 19.96-90.26 31.15-140.45 31.24h-1.23q-7.15-0.02-14.23-0.33v-449.66h166.66z"/>
  </g>
</svg>
