<svg version="1.2" xmlns="http://www.w3.org/2000/svg" viewBox="0 0 900 505" width="900" height="505">
	<style>
		.s0 { fill: #000000 } 
	</style>
	<path class="s0" d="m51.54 731.25l-48.15-148.48h43.27l40.51 128.54h-21.84l42.63-128.54h38.6l40.3 128.54h-21l41.79-128.54h40.08l-48.14 148.48h-44.97l-34.36-109.24h12.09l-35.84 109.24zm271.04 0v-21.43l-2.76-5.3v-39.45q0-9.54-5.93-14.64-5.73-5.3-18.46-5.3-8.27 0-16.75 2.76-8.49 2.55-14.43 7.21l-13.57-27.36q9.76-6.36 23.33-9.76 13.79-3.6 27.36-3.6 28 0 43.27 12.94 15.48 12.72 15.48 40.08v63.85zm-33.93 1.9q-13.79 0.01-23.33-4.66-9.55-4.67-14.64-12.73-4.88-8.06-4.88-18.03 0-10.6 5.31-18.24 5.51-7.84 16.75-11.87 11.24-4.25 29.06-4.25h27.15v21h-21.64q-9.75 0-13.78 3.18-3.82 3.18-3.82 8.49 0 5.3 4.03 8.48 4.03 3.18 11.03 3.18 6.57 0 11.88-3.18 5.51-3.39 8.06-10.18l5.51 14.85q-3.18 11.88-12.51 18.03-9.12 5.93-24.18 5.93zm171.78-118.77q13.37 0 24.18 5.51 10.82 5.31 16.97 16.55 6.37 11.24 6.37 29.05v65.76h-40.3v-59.18q0-12.3-5.09-17.82-4.88-5.72-13.79-5.72-6.36 0-11.67 2.97-5.3 2.75-8.27 8.69-2.97 5.94-2.97 15.49v55.57h-40.3v-114.96h38.39v32.66l-7.42-9.54q6.58-12.52 18.03-18.67 11.45-6.36 25.87-6.36zm124.32 118.77q-15.69 0-28.63-7.21-12.73-7.42-20.36-20.57-7.64-13.36-7.64-31.82 0-18.24 7.64-31.39 7.63-13.36 20.36-20.57 12.94-7.21 28.63-7.21 14.85 0 25.03 6.36 10.39 6.36 15.7 19.51 5.3 13.15 5.3 33.3 0 20.58-5.09 33.73-5.09 13.15-15.27 19.51-10.18 6.36-25.67 6.36zm8.49-32.02q6.78 0 12.09-3.18 5.51-3.19 8.69-9.34 3.18-6.36 3.18-15.06 0-8.69-3.18-14.63-3.18-6.15-8.69-9.33-5.31-3.18-12.09-3.18-7 0-12.52 3.18-5.3 3.18-8.48 9.33-3.18 5.94-3.18 14.63 0 8.7 3.18 15.06 3.18 6.15 8.48 9.34 5.52 3.18 12.52 3.18zm25.24 30.12v-19.73l0.21-37.97-2.12-37.96v-61.72h40.3v157.38zm124.55 1.9q-20.36 0.01-35.63-7.63-15.06-7.85-23.54-21.21-8.28-13.57-8.28-30.76 0-17.18 8.06-30.54 8.28-13.57 22.7-21 14.42-7.63 32.45-7.63 16.97 0 30.97 7 14 6.78 22.27 20.15 8.27 13.36 8.27 32.45 0 2.12-0.21 4.88-0.21 2.75-0.43 5.09h-90.99v-21.21h69.57l-15.27 5.94q0.21-7.85-2.97-13.58-2.97-5.73-8.48-8.91-5.31-3.18-12.52-3.18-7.21 0-12.72 3.18-5.31 3.19-8.28 9.12-2.97 5.73-2.96 13.58v6.15q0 8.48 3.39 14.63 3.6 6.15 10.18 9.55 6.57 3.18 15.7 3.18 8.48 0 14.42-2.33 6.15-2.55 12.09-7.64l21.21 22.06q-8.27 9.12-20.36 14-12.09 4.67-28.64 4.66zm75.85-1.9v-114.96h38.39v33.51l-5.73-9.55q5.09-12.93 16.55-19.3 11.45-6.57 27.78-6.57v36.27q-2.75-0.43-4.88-0.43-1.9-0.21-4.24-0.21-12.3 0-19.93 6.79-7.64 6.57-7.64 21.63v52.82zm-767.34 202l-48.15-148.48h43.27l40.51 128.54h-21.85l42.64-128.54h38.6l40.3 128.54h-21l41.78-128.54h40.09l-48.15 148.48h-44.96l-34.36-109.24h12.09l-35.85 109.24zm296.33-116.87q13.36 0 24.18 5.51 10.82 5.31 16.97 16.55 6.36 11.24 6.36 29.06v65.75h-40.3v-59.18q0-12.3-5.09-17.82-4.88-5.72-13.79-5.72-6.36 0-11.66 2.97-5.3 2.75-8.27 8.69-2.97 5.94-2.97 15.49v55.57h-40.3v-157.38h40.3v75.08l-9.34-9.54q6.58-12.52 18.03-18.67 11.46-6.36 25.88-6.36zm143.51 118.77q-20.36 0.01-35.63-7.63-15.06-7.85-23.54-21.21-8.28-13.57-8.28-30.76 0-17.18 8.06-30.54 8.28-13.57 22.7-21 14.42-7.63 32.45-7.63 16.97 0 30.97 7 14 6.78 22.27 20.15 8.27 13.36 8.27 32.45 0 2.12-0.21 4.88-0.21 2.75-0.43 5.09h-90.99v-21.21h69.57l-15.27 5.94q0.21-7.85-2.97-13.58-2.97-5.73-8.48-8.91-5.31-3.18-12.52-3.18-7.21 0-12.72 3.18-5.31 3.19-8.28 9.12-2.96 5.73-2.96 13.58v6.15q0 8.48 3.39 14.63 3.6 6.15 10.18 9.55 6.57 3.18 15.7 3.18 8.48 0 14.42-2.33 6.15-2.55 12.09-7.64l21.21 22.06q-8.27 9.12-20.36 14-12.09 4.67-28.64 4.66zm145.1 0q-20.36 0.01-35.63-7.63-15.06-7.85-23.54-21.21-8.28-13.57-8.28-30.76 0-17.18 8.06-30.54 8.27-13.57 22.7-21 14.42-7.63 32.45-7.63 16.97 0 30.97 7 13.99 6.78 22.27 20.15 8.27 13.36 8.27 32.45 0 2.12-0.21 4.88-0.22 2.75-0.43 5.09h-90.99v-21.21h69.57l-15.27 5.94q0.21-7.85-2.97-13.58-2.97-5.73-8.48-8.91-5.31-3.18-12.52-3.18-7.21 0-12.72 3.18-5.31 3.19-8.28 9.12-2.97 5.73-2.97 13.58v6.15q0 8.48 3.4 14.63 3.6 6.15 10.18 9.55 6.57 3.18 15.69 3.18 8.49 0 14.43-2.33 6.15-2.55 12.09-7.64l21.21 22.06q-8.28 9.12-20.36 14-12.1 4.67-28.64 4.66zm84.86-1.9v-157.38h40.3v157.38zm117.29 1.9q-14.64 0.01-28.63-3.39-13.79-3.39-22.27-8.48l12.09-27.58q8.05 4.88 18.87 7.85 10.82 2.76 21.21 2.76 10.18 0 14-2.12 4.03-2.12 4.03-5.73 0-3.39-3.82-4.88-3.6-1.69-9.75-2.54-5.94-0.85-13.15-1.91-7.22-1.06-14.64-2.76-7.21-1.91-13.36-5.51-5.94-3.82-9.55-10.18-3.6-6.37-3.6-16.12 0-11.03 6.36-19.52 6.58-8.69 19.09-13.57 12.51-5.09 30.54-5.09 12.09 0 24.39 2.54 12.52 2.34 21 7.21l-12.09 27.37q-8.48-4.88-16.97-6.58-8.48-1.91-16.11-1.91-10.19 0-14.43 2.34-4.03 2.33-4.03 5.72 0 3.4 3.61 5.3 3.6 1.7 9.54 2.76 6.15 0.85 13.37 1.91 7.21 0.85 14.42 2.76 7.42 1.91 13.36 5.72 6.15 3.61 9.76 9.97 3.6 6.15 3.6 15.91 0 10.61-6.57 19.09-6.37 8.48-19.09 13.58-12.52 5.08-31.18 5.08z"/>
	<path class="s0" d="m31.25 1035.83v-42.42h20.73q8 0 11.99 3.03 4.07 3.02 4.07 8 0 3.33-1.64 5.82-1.64 2.42-4.49 3.75-2.84 1.34-6.54 1.34l1.15-2.49q4 0 7.09 1.33 3.09 1.28 4.79 3.82 1.76 2.55 1.76 6.24 0 5.46-4.31 8.55-4.3 3.03-12.66 3.03zm9.75-7.39h11.46q3.82 0 5.76-1.22 1.99-1.27 2-4-0.01-2.66-2-3.94-1.94-1.32-5.76-1.33h-12.18v-7.15h10.48q3.58 0 5.46-1.21 1.93-1.27 1.93-3.82 0-2.49-1.93-3.7-1.88-1.27-5.46-1.27h-9.76zm71.73 7.39v-42.42h9.82v42.42zm63.82-9.7l-0.54-11.33 20.3-21.39h10.9l-18.3 19.69-5.45 5.82zm-8.79 9.7v-42.42h9.76v42.42zm29.03 0l-15.09-18.48 6.42-6.97 20.12 25.45zm60.74-7.88h23.08v7.88h-32.84v-42.42h32.06v7.88h-22.3zm-0.73-17.45h20.42v7.63h-20.42zm119.08 25.33v-42.42h18.37q5.69 0 9.81 1.88 4.12 1.81 6.37 5.27 2.24 3.45 2.24 8.24 0 4.73-2.24 8.18-2.25 3.39-6.37 5.21-4.12 1.82-9.81 1.82h-12.91l4.36-4.3v16.12zm26.97 0l-10.61-15.39h10.49l10.72 15.39zm-17.15-15.03l-4.36-4.61h12.36q4.55 0 6.79-1.94 2.24-2 2.24-5.45 0-3.51-2.24-5.45-2.24-1.95-6.79-1.94h-12.36l4.36-4.67zm79.65 7.15h23.09v7.88h-32.84v-42.42h32.05v7.88h-22.3zm-0.72-17.45h20.42v7.63h-20.42zm66.77 25.33v-42.42h8.12l25.03 30.54h-3.94v-30.54h9.7v42.42h-8.06l-25.09-30.54h3.94v30.54zm92.88 0v-34.42h-13.58v-8h36.97v8h-13.58v34.42zm56.12 0l18.91-42.42h9.69l18.97 42.42h-10.3l-15.52-37.45h3.88l-15.57 37.45zm9.45-9.09l2.61-7.46h21.81l2.67 7.46zm77.67 9.09v-42.42h9.81v34.42h21.28v8zm85.48 0.73q-5.09 0-9.76-1.34-4.67-1.39-7.51-3.57l3.33-7.4q2.73 1.95 6.42 3.22 3.76 1.21 7.58 1.21 2.91 0 4.66-0.55 1.82-0.6 2.67-1.63 0.85-1.03 0.85-2.37 0-1.7-1.33-2.66-1.34-1.04-3.52-1.64-2.18-0.66-4.85-1.21-2.6-0.61-5.27-1.46-2.61-0.84-4.79-2.18-2.18-1.33-3.57-3.51-1.34-2.19-1.34-5.58 0-3.63 1.94-6.6 2-3.03 5.94-4.79 4-1.82 10-1.82 4 0 7.88 0.97 3.88 0.91 6.85 2.79l-3.03 7.45q-2.97-1.7-5.94-2.48-2.97-0.85-5.82-0.85-2.85 0-4.67 0.67-1.81 0.67-2.6 1.75-0.79 1.04-0.79 2.43 0 1.64 1.33 2.66 1.34 0.98 3.52 1.58 2.18 0.61 4.79 1.21 2.66 0.61 5.27 1.4 2.67 0.78 4.85 2.12 2.18 1.33 3.51 3.51 1.4 2.18 1.4 5.52 0 3.57-2 6.54-2 2.97-6 4.79-3.94 1.82-10 1.82z"/>
	<path class="s0" d="m816.67 316.66c46.02 0 83.33 37.31 83.33 83.33 0 46.02-37.31 83.33-83.33 83.33-46.02 0-83.33-37.31-83.33-83.33 0-46.02 37.31-83.33 83.33-83.33zm-650.01-108.86l87.06-81.19 0.1 0.11c23.47-22.63 50.24-41.85 79.52-56.86v-0.01c45.54-23.34 97.16-36.52 151.85-36.52q7.45 0 14.82 0.33v174.72l87.68-81.77 0.12 0.13q0.53-0.51 1.06-1.02l-0.13-0.13q2.68-2.42 5.38-4.79c11.1-10.16 22.88-19.58 35.27-28.18 69.51-50.51 151.25-82.25 237.27-91.64l0.02 0.24v164.17c-62.36 10.21-120.64 38.05-167.87 80.38l0.02 0.02-114.37 106.66c-27.26 27.24-59.22 49.79-94.55 66.31q-0.02-0.15-0.05-0.3c-43 20.23-91.02 31.53-141.68 31.53q-7.44 0-14.8-0.32v-174.52l-83.4 77.77c-27.16 27.03-58.94 49.41-94.07 65.84q0 0 0-0.01c-42.67 19.96-90.26 31.15-140.45 31.24h-1.23q-7.15-0.02-14.23-0.33v-449.66h166.66z"/>
</svg>